<svg width="1366" height="3192" viewBox="0 0 1366 3192" fill="none" xmlns="http://www.w3.org/2000/svg">
<g clip-path="url(#clip0_1_2)">
<rect width="1366" height="3192" fill="#282C33"/>
<circle cx="1288" cy="2296" r="2" fill="#ABB2BF"/>
<circle cx="1312.75" cy="2296" r="2" fill="#ABB2BF"/>
<circle cx="1337.5" cy="2296" r="2" fill="#ABB2BF"/>
<circle cx="1362.25" cy="2296" r="2" fill="#ABB2BF"/>
<circle cx="1288" cy="2320.75" r="2" fill="#ABB2BF"/>
<circle cx="1312.75" cy="2320.75" r="2" fill="#ABB2BF"/>
<circle cx="1337.5" cy="2320.75" r="2" fill="#ABB2BF"/>
<circle cx="1362.25" cy="2320.75" r="2" fill="#ABB2BF"/>
<circle cx="1288" cy="2345.5" r="2" fill="#ABB2BF"/>
<circle cx="1312.75" cy="2345.5" r="2" fill="#ABB2BF"/>
<circle cx="1337.5" cy="2345.5" r="2" fill="#ABB2BF"/>
<circle cx="1362.25" cy="2345.5" r="2" fill="#ABB2BF"/>
<circle cx="1288" cy="2370.25" r="2" fill="#ABB2BF"/>
<circle cx="1312.75" cy="2370.25" r="2" fill="#ABB2BF"/>
<circle cx="1337.5" cy="2370.25" r="2" fill="#ABB2BF"/>
<circle cx="1362.25" cy="2370.25" r="2" fill="#ABB2BF"/>
<circle cx="1288" cy="2395" r="2" fill="#ABB2BF"/>
<circle cx="1312.75" cy="2395" r="2" fill="#ABB2BF"/>
<circle cx="1337.5" cy="2395" r="2" fill="#ABB2BF"/>
<circle cx="1362.25" cy="2395" r="2" fill="#ABB2BF"/>
<circle cx="0.5" cy="2707" r="2" fill="#ABB2BF"/>
<circle cx="25.25" cy="2707" r="2" fill="#ABB2BF"/>
<circle cx="50" cy="2707" r="2" fill="#ABB2BF"/>
<circle cx="0.5" cy="2731.75" r="2" fill="#ABB2BF"/>
<circle cx="25.25" cy="2731.75" r="2" fill="#ABB2BF"/>
<circle cx="50" cy="2731.75" r="2" fill="#ABB2BF"/>
<circle cx="0.5" cy="2756.5" r="2" fill="#ABB2BF"/>
<circle cx="25.25" cy="2756.5" r="2" fill="#ABB2BF"/>
<circle cx="50" cy="2756.5" r="2" fill="#ABB2BF"/>
<circle cx="0.5" cy="2781.25" r="2" fill="#ABB2BF"/>
<circle cx="25.25" cy="2781.25" r="2" fill="#ABB2BF"/>
<circle cx="50" cy="2781.25" r="2" fill="#ABB2BF"/>
<circle cx="0.5" cy="2806" r="2" fill="#ABB2BF"/>
<circle cx="25.25" cy="2806" r="2" fill="#ABB2BF"/>
<circle cx="50" cy="2806" r="2" fill="#ABB2BF"/>
<circle cx="16" cy="957" r="2" fill="#ABB2BF"/>
<circle cx="36" cy="957" r="2" fill="#ABB2BF"/>
<circle cx="16" cy="977" r="2" fill="#ABB2BF"/>
<circle cx="36" cy="977" r="2" fill="#ABB2BF"/>
<circle cx="16" cy="997" r="2" fill="#ABB2BF"/>
<circle cx="36" cy="997" r="2" fill="#ABB2BF"/>
<circle cx="16" cy="1017" r="2" fill="#ABB2BF"/>
<circle cx="36" cy="1017" r="2" fill="#ABB2BF"/>
<circle cx="16" cy="1037" r="2" fill="#ABB2BF"/>
<circle cx="36" cy="1037" r="2" fill="#ABB2BF"/>
<rect x="-76.5" y="2125.5" width="154" height="154" stroke="#ABB2BF"/>
<rect x="1298.5" y="1160.5" width="154" height="154" stroke="#ABB2BF"/>
<rect x="1284.5" y="672.5" width="90" height="90" stroke="#ABB2BF"/>
</g>
<defs>
<clipPath id="clip0_1_2">
<rect width="1366" height="3192" fill="white"/>
</clipPath>
</defs>
</svg>
