<svg width="32" height="112" viewBox="0 0 32 112" fill="none" xmlns="http://www.w3.org/2000/svg">
<path d="M15.5 6C9.69875 6 5 10.5882 5 16.2529C5 20.7899 8.00562 24.6219 12.1794 25.9804C12.7044 26.0701 12.9012 25.7625 12.9012 25.4934C12.9012 25.2499 12.8881 24.4425 12.8881 23.5838C10.25 24.058 9.5675 22.9558 9.3575 22.3791C9.23938 22.0843 8.7275 21.1743 8.28125 20.9308C7.91375 20.7386 7.38875 20.2644 8.26813 20.2516C9.095 20.2388 9.68563 20.9949 9.8825 21.3025C10.8275 22.8533 12.3369 22.4175 12.9406 22.1484C13.0325 21.4819 13.3081 21.0334 13.61 20.777C11.2737 20.5207 8.8325 19.6364 8.8325 15.7147C8.8325 14.5997 9.23938 13.6769 9.90875 12.9592C9.80375 12.7029 9.43625 11.6519 10.0138 10.2422C10.0138 10.2422 10.8931 9.97301 12.9012 11.2931C13.7413 11.0624 14.6338 10.947 15.5263 10.947C16.4188 10.947 17.3113 11.0624 18.1513 11.2931C20.1594 9.9602 21.0387 10.2422 21.0387 10.2422C21.6163 11.6519 21.2488 12.7029 21.1438 12.9592C21.8131 13.6769 22.22 14.5868 22.22 15.7147C22.22 19.6492 19.7656 20.5207 17.4294 20.777C17.81 21.0975 18.1381 21.7126 18.1381 22.6738C18.1381 24.0452 18.125 25.1474 18.125 25.4934C18.125 25.7625 18.3219 26.0829 18.8469 25.9804C20.9314 25.2935 22.7428 23.9854 24.026 22.2403C25.3092 20.4953 25.9996 18.4012 26 16.2529C26 10.5882 21.3013 6 15.5 6Z" fill="#ABB2BF"/>
<path fill-rule="evenodd" clip-rule="evenodd" d="M16.5 44C10.152 44 5 49.152 5 55.5C5 61.848 10.152 67 16.5 67C22.8365 67 28 61.848 28 55.5C28 49.152 22.8365 44 16.5 44ZM24.0958 49.3015C25.5115 51.0255 26.2951 53.1817 26.3167 55.4123C25.9918 55.3505 22.7488 54.6892 19.4814 55.1004C19.4066 54.9394 19.3434 54.764 19.2686 54.5901C19.0688 54.1157 18.8446 53.6298 18.6203 53.1669C22.2371 51.6964 23.8844 49.5761 24.0972 49.3001L24.0958 49.3015ZM16.5 45.6962C18.9941 45.6962 21.2768 46.6306 23.0119 48.1659C22.8365 48.416 21.3516 50.3983 17.8599 51.7079C16.2499 48.7524 14.4674 46.3316 14.1928 45.9579C14.9491 45.7813 15.7234 45.6935 16.5 45.6962ZM12.3212 46.6191C13.6375 48.4434 14.8535 50.3379 15.9638 52.2944C11.3739 53.5162 7.32012 53.4918 6.88312 53.4918C7.19917 52.005 7.85438 50.6114 8.79766 49.4195C9.74094 48.2276 10.9468 47.2697 12.3212 46.6206V46.6191ZM6.67181 55.5144V55.2125C7.09588 55.2269 11.8612 55.2887 16.7631 53.8167C17.0491 54.3644 17.3108 54.9264 17.5609 55.4871L17.1728 55.5992C12.1099 57.2336 9.416 61.6985 9.19031 62.0737C7.56856 60.2734 6.67131 57.936 6.67181 55.5129V55.5144ZM16.5 65.3282C14.3172 65.3316 12.1964 64.6027 10.4769 63.2582C10.6494 62.8959 12.6461 59.0549 18.1833 57.1215C18.2092 57.1086 18.2207 57.1086 18.2466 57.0971C19.1801 59.5068 19.8814 62.0002 20.341 64.5433C19.1277 65.0646 17.8205 65.3318 16.5 65.3282ZM21.9769 63.6449C21.8763 63.0454 21.3516 60.1776 20.0679 56.6471C23.1484 56.1613 25.8423 56.9591 26.1787 57.0712C25.9692 58.3975 25.4876 59.6662 24.7643 60.7974C24.0409 61.9287 23.0914 62.8982 21.9754 63.6449H21.9769Z" fill="#ABB2BF"/>
<path d="M16 96C16 95.1159 16.3687 94.2681 17.0251 93.643C17.6815 93.0179 18.5717 92.6667 19.5 92.6667C20.4283 92.6667 21.3185 93.0179 21.9749 93.643C22.6313 94.2681 23 95.1159 23 96C23 96.8841 22.6313 97.7319 21.9749 98.357C21.3185 98.9821 20.4283 99.3333 19.5 99.3333C18.5717 99.3333 17.6815 98.9821 17.0251 98.357C16.3687 97.7319 16 96.8841 16 96ZM9 102.667C9 101.783 9.36875 100.935 10.0251 100.31C10.6815 99.6845 11.5717 99.3333 12.5 99.3333H16V102.667C16 103.551 15.6313 104.399 14.9749 105.024C14.3185 105.649 13.4283 106 12.5 106C11.5717 106 10.6815 105.649 10.0251 105.024C9.36875 104.399 9 103.551 9 102.667ZM16 86V92.6667H19.5C20.4283 92.6667 21.3185 92.3155 21.9749 91.6904C22.6313 91.0652 23 90.2174 23 89.3333C23 88.4493 22.6313 87.6014 21.9749 86.9763C21.3185 86.3512 20.4283 86 19.5 86H16ZM9 89.3333C9 90.2174 9.36875 91.0652 10.0251 91.6904C10.6815 92.3155 11.5717 92.6667 12.5 92.6667H16V86H12.5C11.5717 86 10.6815 86.3512 10.0251 86.9763C9.36875 87.6014 9 88.4493 9 89.3333ZM9 96C9 96.8841 9.36875 97.7319 10.0251 98.357C10.6815 98.9821 11.5717 99.3333 12.5 99.3333H16V92.6667H12.5C11.5717 92.6667 10.6815 93.0179 10.0251 93.643C9.36875 94.2681 9 95.1159 9 96Z" fill="#ABB2BF"/>
</svg>
